<svg xmlns="http://www.w3.org/2000/svg" xmlns:xlink="http://www.w3.org/1999/xlink" viewBox="0 0 1080 271"><defs><style>.cls-1{fill:none;}.cls-2{isolation:isolate;}.cls-3{clip-path:url(#clip-path);}.cls-4{fill:#366;}.cls-5{fill:#9cc;}.cls-6,.cls-7,.cls-8{mix-blend-mode:color-burn;}.cls-6{fill:url(#linear-gradient);}.cls-7{fill:url(#linear-gradient-2);}.cls-8{fill:url(#linear-gradient-3);}.cls-9{fill:#333;}</style><clipPath id="clip-path"><rect class="cls-1" x="-0.45" y="0.5" width="1080.45" height="270.37" transform="translate(1079.55 271.36) rotate(180)"/></clipPath><linearGradient id="linear-gradient" x1="-2382.32" y1="187.21" x2="-2382.32" y2="-47.92" gradientTransform="matrix(-1, 0, 0, 1, -1922.18, 0)" gradientUnits="userSpaceOnUse"><stop offset="0" stop-color="#fff"/><stop offset="0.39" stop-color="#f9f9f9"/><stop offset="0.9" stop-color="#e8e8e8"/><stop offset="1" stop-color="#e4e4e4"/></linearGradient><linearGradient id="linear-gradient-2" x1="-2418.86" y1="256.81" x2="-2418.86" y2="15.13" xlink:href="#linear-gradient"/><linearGradient id="linear-gradient-3" x1="1519.97" y1="-1456.34" x2="1519.97" y2="-1698.01" gradientTransform="matrix(1, 0, 0, -1, -1025.78, -1312.57)" gradientUnits="userSpaceOnUse"><stop offset="0" stop-color="#fff"/><stop offset="0.24" stop-color="#f9f9f9"/><stop offset="0.57" stop-color="#e8e8e8"/><stop offset="0.94" stop-color="#cdcdcd"/><stop offset="1" stop-color="#c7c7c7"/></linearGradient></defs><title>Untitled-2</title><g class="cls-2"><g id="Layer_1" data-name="Layer 1"><g class="cls-3"><polygon class="cls-4" points="-257.77 352.92 582.78 352.92 835.3 -23.09 -5.25 -23.09 -257.77 352.92"/><polygon class="cls-5" points="596.82 332.01 553.14 332.01 734.14 62.5 777.82 62.5 596.82 332.01"/><polygon class="cls-6" points="391.28 198.83 272.35 198.83 529.01 -183.33 647.93 -183.33 391.28 198.83"/><polygon class="cls-7" points="425.9 268.75 303.67 268.75 567.46 -124.04 689.7 -124.04 425.9 268.75"/><polygon class="cls-8" points="564.97 131.82 687.2 131.82 423.4 524.61 301.17 524.61 564.97 131.82"/><polygon class="cls-9" points="578.88 352.92 1419.43 352.92 1671.95 -23.09 831.4 -23.09 578.88 352.92"/></g></g></g></svg>