<?xml version="1.0" encoding="utf-8"?>
<!-- Generator: Adobe Illustrator 23.1.0, SVG Export Plug-In . SVG Version: 6.00 Build 0)  -->
<svg version="1.1" id="Layer_1" xmlns="http://www.w3.org/2000/svg" xmlns:xlink="http://www.w3.org/1999/xlink" x="0px" y="0px"
	 viewBox="0 0 971 359" style="enable-background:new 0 0 971 359;" xml:space="preserve">
<style type="text/css">
	.st0{fill:#A7CACA;}
	.st1{clip-path:url(#SVGID_2_);fill:url(#SVGID_3_);}
	.st2{clip-path:url(#SVGID_2_);}
	.st3{fill:url(#SVGID_4_);}
	.st4{clip-path:url(#SVGID_6_);}
	.st5{fill:#486666;}
	.st6{fill:#486666;stroke:#5253A8;stroke-width:2.3862;stroke-miterlimit:10;}
</style>
<g>
	<rect x="-0.3" y="0" class="st0" width="970" height="359.3"/>
	<g>
		<defs>
			<rect id="SVGID_1_" x="-0.3" y="0" width="970" height="359.3"/>
		</defs>
		<clipPath id="SVGID_2_">
			<use xlink:href="#SVGID_1_"  style="overflow:visible;"/>
		</clipPath>
		<linearGradient id="SVGID_3_" gradientUnits="userSpaceOnUse" x1="-30.5489" y1="120.1605" x2="1356.549" y2="120.1605">
			<stop  offset="0" style="stop-color:#363636"/>
			<stop  offset="1" style="stop-color:#7DDDEE"/>
		</linearGradient>
		<polygon class="st1" points="1353.6,385.7 1356.5,382.6 447.3,-145.4 18.2,-145.4 -30.5,-94.9 -30.5,385.7 		"/>
		<g class="st2">
			<linearGradient id="SVGID_4_" gradientUnits="userSpaceOnUse" x1="1022.853" y1="-159.6741" x2="606.2196" y2="429.6171">
				<stop  offset="0" style="stop-color:#A7CACA"/>
				<stop  offset="1" style="stop-color:#486666"/>
			</linearGradient>
			<polygon class="st3" points="987.6,388.9 987.6,-21.6 737,-21.6 395.4,229.2 612.8,388.9 			"/>
		</g>
	</g>
	<g>
		<defs>
			<rect id="SVGID_5_" x="-0.3" y="0" width="970" height="359.3"/>
		</defs>
		<clipPath id="SVGID_6_">
			<use xlink:href="#SVGID_5_"  style="overflow:visible;"/>
		</clipPath>
		<g class="st4">
			<g>
				<g>
					<polygon class="st5" points="711,157.6 635.2,102 711,46.4 					"/>
				</g>
				<g>
					<polygon class="st5" points="711,157.6 635.2,102 711,46.4 					"/>
				</g>
			</g>
			<g>
				<polygon class="st5" points="796.6,218.9 720.9,163.3 796.6,107.7 				"/>
			</g>
			<g>
				<polygon class="st5" points="880,157.9 720.3,40.7 880,-76.5 				"/>
			</g>
			<g>
				<path class="st6" d="M487.6,189.9"/>
				<path class="st6" d="M328,307.1"/>
				<path class="st6" d="M487.6,424.2"/>
			</g>
			<g>
				<polygon class="st5" points="970.6,458.7 810.9,341.5 970.6,224.3 				"/>
			</g>
			<g>
				<polygon class="st5" points="800.9,218.9 876.7,163.3 800.9,107.7 				"/>
			</g>
			<g>
				<polygon class="st5" points="885,33.6 960.8,-22 885,-77.6 				"/>
			</g>
			<g>
				<polygon class="st5" points="716.8,281.7 792.5,226.1 716.8,170.5 				"/>
			</g>
			<g>
				<polygon class="st5" points="585.7,361.5 661.4,305.9 585.7,250.3 				"/>
			</g>
			<g>
				<polygon class="st5" points="716.5,98.5 752,72.5 716.5,46.4 				"/>
			</g>
			<g>
				<polygon class="st5" points="716.3,158 751.7,132 716.3,105.9 				"/>
			</g>
			<g>
				<polygon class="st5" points="976,275.2 1011.4,249.2 976,223.2 				"/>
			</g>
			<g>
				<polygon class="st5" points="975.7,334.7 1011.2,308.7 975.7,282.7 				"/>
			</g>
			<g>
				<polygon class="st5" points="760.3,125.9 793.8,101.3 760.3,76.8 				"/>
			</g>
			<g>
				<polygon class="st5" points="755.2,125.9 721.8,101.3 755.2,76.8 				"/>
			</g>
			<g>
				<polygon class="st5" points="625.4,218.9 549.7,163.3 625.4,107.7 				"/>
			</g>
			<g>
				<polygon class="st5" points="577,418 501.3,362.4 577,306.9 				"/>
			</g>
			<g>
				<polygon class="st5" points="631,159.8 666.4,133.8 631,107.7 				"/>
			</g>
			<g>
				<polygon class="st5" points="494.4,241 529.8,215 494.4,189 				"/>
			</g>
			<g>
				<polygon class="st5" points="630.7,219.3 666.1,193.3 630.7,167.3 				"/>
			</g>
			<g>
				<polygon class="st5" points="674.8,187.2 708.3,162.6 674.8,138.1 				"/>
			</g>
			<g>
				<polygon class="st5" points="669.7,187.2 636.2,162.6 669.7,138.1 				"/>
			</g>
			<g>
				<polygon class="st5" points="889.1,277.4 964.9,221.8 889.1,166.2 				"/>
			</g>
			<g>
				<polygon class="st5" points="883.6,218.2 848.1,192.2 883.6,166.2 				"/>
			</g>
			<g>
				<polygon class="st5" points="883.8,277.7 848.4,251.7 883.8,225.7 				"/>
			</g>
			<g>
				<polygon class="st5" points="839.8,245.7 806.3,221.1 839.8,196.5 				"/>
			</g>
			<g>
				<polygon class="st5" points="844.9,245.7 878.3,221.1 844.9,196.5 				"/>
			</g>
			<g>
				<polygon class="st5" points="795.6,311.3 762.1,286.7 795.6,262.1 				"/>
			</g>
			<g>
				<polygon class="st5" points="800.7,311.3 834.1,286.7 800.7,262.1 				"/>
			</g>
			<g>
				<polygon class="st5" points="708.2,333.7 672.8,307.7 708.2,281.7 				"/>
			</g>
			<g>
				<polygon class="st5" points="708.5,393.2 673.1,367.2 708.5,341.2 				"/>
			</g>
			<g>
				<polygon class="st5" points="664.4,361.2 630.9,336.6 664.4,312 				"/>
			</g>
			<g>
				<polygon class="st5" points="669.5,361.2 703,336.6 669.5,312 				"/>
			</g>
			<g>
				<polygon class="st5" points="577.3,302 541.9,275.9 577.3,249.9 				"/>
			</g>
			<g>
				<polygon class="st5" points="533.3,269.9 499.8,245.3 533.3,220.8 				"/>
			</g>
			<g>
				<polygon class="st5" points="538.3,269.9 571.8,245.3 538.3,220.8 				"/>
			</g>
		</g>
	</g>
</g>
</svg>
